<?xml version="1.0" encoding="UTF-8"?>
<svg version="1.1" xmlns="http://www.w3.org/2000/svg" width="1280" height="720">
<path d="M0 0 C1.35688041 -0.00418385 2.71375732 -0.00966707 4.07062787 -0.01631981 C7.7615555 -0.03065573 11.45225759 -0.02656728 15.14319694 -0.019153 C19.13856095 -0.01439392 23.13387806 -0.02695529 27.12922668 -0.03717041 C34.94209992 -0.0543108 42.75489255 -0.05520828 50.5677797 -0.04995751 C56.92269909 -0.04590541 63.27759478 -0.04737167 69.63251305 -0.05270576 C70.53922596 -0.05345419 71.44593887 -0.05420261 72.38012793 -0.05497371 C74.2225093 -0.05650529 76.06489065 -0.05804364 77.907272 -0.05958868 C95.16038795 -0.07329669 112.41345847 -0.06788816 129.66657337 -0.05640347 C145.42360781 -0.04647451 161.18052478 -0.05940896 176.9375411 -0.08333766 C193.14694 -0.10776641 209.35628426 -0.11732716 225.56570119 -0.11068493 C234.65398684 -0.10720088 243.74218221 -0.1093707 252.83045387 -0.12693596 C260.56760677 -0.14170533 268.3046058 -0.14223191 276.04175583 -0.12486505 C279.98306829 -0.11639115 283.92410645 -0.11411611 287.86540413 -0.1295166 C313.94093481 -0.22394114 335.10264432 1.49933083 355.054245 20.38768005 C370.7718894 36.49967396 375.26590949 57.38431879 375.15588379 79.17584229 C375.15478761 80.20905007 375.15369142 81.24225786 375.15256202 82.30677497 C375.14776887 85.72675594 375.13579833 89.14667237 375.12382507 92.56663513 C375.11895663 95.01923697 375.11455924 97.47183977 375.11060047 99.92444324 C375.10141796 105.10941515 375.08928208 110.29436825 375.07484818 115.47932816 C375.05386008 123.15559154 375.04189067 130.83184814 375.03211975 138.50813293 C374.99042928 169.44863586 374.90945698 200.38904733 374.81853008 231.32944012 C374.80956877 234.39467034 374.80065873 237.45990072 374.79179382 240.52513123 C374.78959014 241.28638445 374.78738646 242.04763767 374.78511599 242.83195917 C374.74937736 255.28780796 374.72468906 267.74365632 374.70389798 280.19953801 C374.68211759 293.11063862 374.64909948 306.02167477 374.60554343 318.93272048 C374.57921074 326.83866359 374.56138106 334.74452704 374.55489895 342.65051178 C374.54900972 348.6783261 374.52739699 354.70598081 374.49996948 360.73373985 C374.49120057 363.19433309 374.48746429 365.6549504 374.48923683 368.11555862 C374.4908967 371.48269695 374.47413235 374.84927757 374.45297241 378.21633911 C374.46024378 379.66012146 374.46024378 379.66012146 374.46766204 381.13307112 C374.29881195 397.49854703 368.11543472 411.72618285 358.054245 424.38768005 C357.40069031 425.2384613 356.74713562 426.08924255 356.07377625 426.96580505 C350.64827512 433.47220873 343.69859066 437.85787802 336.241745 441.70018005 C335.31990417 442.18804993 335.31990417 442.18804993 334.37944031 442.68577576 C323.85651298 447.87315327 312.66951451 448.83178824 301.10848999 448.77536011 C299.75160958 448.77954395 298.39473267 448.78502718 297.03786212 448.79167992 C293.34693449 448.80601584 289.6562324 448.80192739 285.96529305 448.79451311 C281.96992904 448.78975402 277.97461193 448.80231539 273.97926331 448.81253052 C266.16639007 448.82967091 258.35359744 448.83056839 250.54071029 448.82531761 C244.1857909 448.82126552 237.83089521 448.82273178 231.47597694 448.82806587 C230.11590758 448.82918851 230.11590758 448.82918851 228.72836206 448.83033382 C226.88598069 448.8318654 225.04359934 448.83340375 223.20121799 448.83494879 C205.94810204 448.84865679 188.69503152 448.84324827 171.44191662 448.83176357 C155.68488218 448.82183461 139.92796521 448.83476906 124.17094889 448.85869776 C107.96154999 448.88312652 91.75220573 448.89268727 75.5427888 448.88604504 C66.45450315 448.88256099 57.36630778 448.8847308 48.27803612 448.90229607 C40.54088322 448.91706543 32.80388419 448.91759202 25.06673416 448.90022516 C21.1254217 448.89175126 17.18438354 448.88947622 13.24308586 448.90487671 C-12.54651972 448.99826586 -34.40453933 447.48274926 -53.945755 428.38768005 C-67.48433421 412.94557234 -73.60113527 395.4832447 -73.45368958 375.15672302 C-73.45831349 373.79327673 -73.46467629 372.42983546 -73.47259855 371.06640434 C-73.48911094 367.36659495 -73.48112942 363.66720462 -73.46865368 359.96739483 C-73.45953028 355.959127 -73.4736087 351.95092673 -73.48457336 347.94267273 C-73.50228608 340.10899231 -73.49855111 332.27546587 -73.4869228 324.44177961 C-73.47786006 318.07068597 -73.47667672 311.69963524 -73.48101807 305.32853699 C-73.481631 304.41903097 -73.48224393 303.50952495 -73.48287544 302.57245815 C-73.48415444 300.72435712 -73.4854513 298.8762561 -73.4867658 297.02815509 C-73.49815037 279.73069206 -73.48509131 262.43331406 -73.46356434 245.13586497 C-73.44569529 230.31937016 -73.4488 215.50300073 -73.46723938 200.68650818 C-73.48868371 183.4475937 -73.49705193 166.2087536 -73.48479033 148.96982765 C-73.48351623 147.12882615 -73.48225875 145.28782464 -73.48101807 143.44682312 C-73.48040096 142.54120223 -73.47978386 141.63558134 -73.47914806 140.70251739 C-73.47570583 134.34492882 -73.48149909 127.98738773 -73.49093628 121.62980652 C-73.50219733 113.87363486 -73.49903042 106.11762497 -73.4778133 98.36147165 C-73.4673578 94.41014876 -73.46308608 90.45909478 -73.47640991 86.50777435 C-73.48845512 82.88057224 -73.48157541 79.25388467 -73.4604997 75.6267283 C-73.45401587 73.71485001 -73.46686042 71.8029351 -73.48072863 69.89109612 C-73.31056812 50.80269644 -66.21332321 33.20440258 -52.945755 19.38768005 C-47.61918286 14.20079074 -41.69374768 10.47979406 -35.133255 7.07518005 C-34.51829163 6.74945007 -33.90332825 6.42372009 -33.26972961 6.08811951 C-22.74470015 0.90447172 -11.5619542 -0.05643267 0 0 Z M-12.195755 48.63768005 C-17.65526178 55.46586541 -21.06135981 63.03708093 -21.08276939 71.78144073 C-21.08784394 72.88275754 -21.09291848 73.98407435 -21.0981468 75.1187644 C-21.09864455 76.32846726 -21.09914231 77.53817012 -21.09965515 78.78453064 C-21.10403741 80.0698841 -21.10841966 81.35523755 -21.11293471 82.67954111 C-21.1248896 86.25023279 -21.13054615 89.82091097 -21.13511586 93.39161873 C-21.14107616 97.24185699 -21.15268502 101.09207914 -21.16340637 104.94230652 C-21.18792193 114.24295957 -21.20255699 123.54361794 -21.21546644 132.84429336 C-21.21917921 135.47202257 -21.22315238 138.09975125 -21.2272191 140.72747993 C-21.25245823 157.05108489 -21.27450778 173.37469069 -21.28694725 189.69831085 C-21.28987687 193.47888187 -21.29283854 197.25945285 -21.29585266 201.0400238 C-21.29659871 201.97964834 -21.29734476 202.91927288 -21.29811342 203.88737088 C-21.31076111 219.10127031 -21.34397665 234.31505272 -21.38565449 249.52889746 C-21.42810981 265.15489429 -21.4516465 280.78083128 -21.45686781 296.40688562 C-21.46027802 305.17775991 -21.47198695 313.94845137 -21.50497055 322.7192688 C-21.53302181 330.19069323 -21.54394823 337.66189735 -21.53277509 345.13337034 C-21.52760121 348.94256211 -21.53039152 352.75129289 -21.55524063 356.56041718 C-21.58201187 360.69891518 -21.56962966 364.83640625 -21.55375671 368.97496033 C-21.5676388 370.16681741 -21.58152089 371.3586745 -21.59582365 372.58664846 C-21.49408503 383.38588761 -18.40211361 392.75657402 -10.8285675 400.6415863 C-3.06784415 407.83877165 4.39311078 411.86658235 15.18315125 411.8212738 C15.93531418 411.82651566 16.68747711 411.83175751 17.46243286 411.8371582 C19.04649126 411.84354054 20.63059729 411.84229089 22.21464539 411.83372498 C24.58721321 411.82528511 26.95730902 411.85391176 29.32963562 411.88572693 C49.75592325 411.98123414 68.0865586 405.80979309 83.054245 391.38768005 C94.02283684 379.78958642 99.97179709 365.79773615 100.429245 349.82518005 C99.95429266 333.98076999 93.54216448 320.14978158 82.53491211 308.91891479 C80.9474819 307.2772708 79.38944877 305.6113335 77.835495 303.93797302 C66.5197744 291.76515998 54.78472074 280.03310549 42.991745 268.32518005 C40.10230814 265.45633013 37.2136087 262.58675788 34.32879639 259.71325684 C32.55256846 257.94444791 30.77410285 256.17788197 28.99295044 254.41403198 C24.6858528 250.12452671 20.5325252 245.77642873 16.59844971 241.14080811 C13.40166172 237.51151035 9.79869563 234.24649305 6.24565125 230.9697113 C4.554245 229.34080505 4.554245 229.34080505 2.054245 226.38768005 C2.05294359 222.69207363 4.41849484 220.67472385 6.90858459 218.17118835 C7.45503632 217.63709351 8.00148804 217.10299866 8.5644989 216.55271912 C9.13861511 215.97977112 9.71273132 215.40682312 10.304245 214.81651306 C12.20622823 212.92172314 14.11850852 211.03767854 16.0308075 209.15330505 C17.35855029 207.83370289 18.68555605 206.51335877 20.01185608 205.19230652 C23.51104594 201.71025162 27.0186906 198.23684488 30.52861023 194.76560974 C36.12700569 189.2263187 41.71298713 183.67451946 47.29812241 178.12186432 C49.24227454 176.19156348 51.19025966 174.26519996 53.13887024 172.33940125 C58.49105623 167.0375481 63.77171311 161.75449028 68.65370178 156.00886536 C70.73922834 153.59478418 73.00807991 151.39295279 75.304245 149.1806488 C76.2426825 148.26348083 77.18112 147.34631287 78.147995 146.40135193 C79.59779361 144.9884333 81.05036317 143.57890383 82.51127625 142.17747498 C91.066667 133.95213551 98.09913484 125.49593776 101.929245 114.13768005 C102.31854187 113.0187738 102.70783875 111.89986755 103.1089325 110.74705505 C107.68550541 94.48320088 104.2334882 78.66268135 96.28862 64.0947113 C88.53052082 50.742221 75.75278812 41.78124367 60.92655945 37.81907654 C52.29538364 35.92898278 43.58459821 36.05022872 34.79374695 36.07200623 C32.12560755 36.07516955 29.4585765 36.05162594 26.79057312 36.02635193 C11.85396684 35.96984106 -1.46261536 37.08729627 -12.195755 48.63768005 Z M136.054245 36.38768005 C136.5991156 37.45784363 137.14398621 38.5280072 137.70536804 39.63059998 C138.42991667 41.06385689 139.15427157 42.49721175 139.87846375 43.9306488 C140.23646057 44.63250305 140.5944574 45.3343573 140.96330261 46.05747986 C154.85962177 73.63534964 155.73002661 106.56259439 146.304245 135.70018005 C140.48931326 152.63553191 130.72842075 165.09274153 117.991745 177.51268005 C111.12115143 184.19774809 111.12115143 184.19774809 104.66362 191.2743988 C99.88818 196.84865746 94.58748 201.923409 89.366745 207.07518005 C87.31819867 209.09694383 85.2731318 211.12213863 83.23002625 213.1493988 C82.33195251 214.03587097 81.43387878 214.92234314 80.5085907 215.8356781 C78.18778198 218.24882975 76.09844619 220.73858344 74.054245 223.38768005 C75.47498824 226.63329306 77.19187181 228.75029596 79.72221375 231.21580505 C80.45117859 231.93381287 81.18014343 232.65182068 81.93119812 233.3915863 C82.69367859 234.13279724 83.45615906 234.87400818 84.241745 235.63768005 C92.69306498 243.89109402 92.69306498 243.89109402 96.29252625 248.12986755 C99.41905776 251.77127798 102.76104993 255.14108405 106.179245 258.50486755 C106.73401016 259.05175232 107.28877533 259.59863708 107.86035156 260.16209412 C110.16929856 262.43470716 112.48084246 264.7044935 114.80229187 266.96434021 C121.6714647 273.66159054 127.97073923 280.17755281 133.054245 288.38768005 C133.443703 289.00079041 133.83316101 289.61390076 134.23442078 290.24559021 C148.52816475 313.51058332 153.01395603 343.55979767 147.04008484 370.1103363 C143.85063176 382.92188833 139.39824983 395.65581206 133.78862 407.60594177 C132.92722221 409.37467107 132.92722221 409.37467107 133.054245 411.38768005 C153.57797698 411.4812924 174.10167354 411.5517419 194.62557602 411.59492874 C204.15607101 411.61551781 213.68643303 411.64356823 223.21684265 411.68943787 C231.52754378 411.72941787 239.83814856 411.75513941 248.14894319 411.76403403 C252.54586105 411.76922995 256.94250338 411.78136528 261.33933258 411.81060028 C265.48603112 411.83794623 269.63234315 411.84608674 273.77912331 411.84011078 C275.29313324 411.84120251 276.8071574 411.84904158 278.32108879 411.86450195 C287.56106182 411.95415559 295.44384406 410.97136464 304.054245 407.38768005 C302.37723534 403.82509412 300.43478135 401.5311358 297.62382507 398.74607849 C296.70559464 397.83122681 295.7873642 396.91637512 294.84130859 395.97380066 C293.83548982 394.98152644 292.82964504 393.98927857 291.82377625 392.99705505 C290.78914191 391.96869888 289.7550262 390.93982068 288.72140503 389.91044617 C285.99766043 387.19999654 283.26841559 384.49515979 280.53752136 381.79191589 C276.18384157 377.48133711 271.83671712 373.16417721 267.49306297 368.84349823 C265.98510647 367.34564194 264.47371417 365.85132099 262.96191406 364.35734558 C258.40741324 359.83469201 254.01303304 355.27095316 249.83798218 350.39750671 C246.15204577 346.24437624 242.1539524 342.3878056 238.210495 338.48143005 C236.79232849 337.06905073 235.37416493 335.65666844 233.95616913 334.24411774 C231.49101368 331.78980504 229.0225399 329.33883473 226.554245 326.88768005 C223.60438869 323.95830802 220.65516661 321.0283172 217.70988464 318.09434509 C215.8835607 316.27547392 214.05499139 314.45885353 212.22380066 312.6448822 C208.55332459 308.98887836 204.94401414 305.33257928 201.56791687 301.40135193 C197.29936216 296.43352239 192.64205991 291.87032393 187.991745 287.26268005 C187.03173125 286.30708636 186.07202046 285.35118821 185.1125946 284.39500427 C182.0959813 281.38970455 179.07542903 278.38838394 176.054245 275.38768005 C172.54754348 271.90474995 169.04257033 268.42011504 165.54182434 264.93119812 C164.1553916 263.55114872 162.76587201 262.17420261 161.37626648 260.79734802 C156.93585509 256.37403599 152.65627922 251.89031616 148.57398987 247.13450623 C146.48159143 244.72946021 144.25662318 242.4776244 141.99565125 240.23143005 C141.11586609 239.35486755 140.23608093 238.47830505 139.32963562 237.57518005 C138.43438171 236.68830505 137.53912781 235.80143005 136.616745 234.88768005 C135.69442078 233.96986755 134.77209656 233.05205505 133.82182312 232.10643005 C131.56824601 229.86452951 129.31235424 227.62501406 127.054245 225.38768005 C128.47856916 222.40951288 129.83327764 220.40836323 132.241745 218.13768005 C134.70732585 215.80490566 136.94973732 213.36446498 139.15507507 210.78904724 C143.10831954 206.25778328 147.31141499 202.02079785 151.585495 197.79393005 C152.38024231 197.00296936 153.17498962 196.21200867 153.99382019 195.39707947 C157.35960048 192.04749433 160.73135548 188.70394735 164.10258484 185.35984802 C166.57814727 182.90247066 169.05062582 180.44201948 171.522995 177.98143005 C172.27423645 177.23848694 173.02547791 176.49554382 173.79948425 175.73008728 C177.84252616 171.70565494 181.67953868 167.58146411 185.40226746 163.26005554 C187.93660897 160.38759583 190.65327747 157.72134838 193.397995 155.05174255 C194.5740676 153.89318407 195.74983969 152.73432047 196.92533875 151.57518005 C198.73860168 149.79276659 200.55409488 148.01282634 202.37504578 146.23826599 C216.46782105 132.48420446 227.7598927 118.40238888 228.3379364 97.94920349 C228.54952861 80.51257128 223.50331245 66.30055443 211.23002625 53.5322113 C210.51201843 52.82451599 209.79401062 52.11682068 209.054245 51.38768005 C208.20926453 50.52723083 208.20926453 50.52723083 207.34721375 49.6493988 C195.9217503 38.89111571 180.83324985 36.19407308 165.741745 36.2900238 C164.88741882 36.29143875 164.03309265 36.2928537 163.15287781 36.29431152 C160.45329626 36.29986043 157.75380101 36.31240309 155.054245 36.32518005 C153.21179829 36.33020167 151.36935026 36.33476341 149.52690125 36.33885193 C145.03598313 36.34981306 140.54512864 36.3670418 136.054245 36.38768005 Z M260.054245 36.38768005 C260.64592468 37.53881287 261.23760437 38.68994568 261.84721375 39.8759613 C276.28933227 68.66854117 280.91429296 102.36310476 270.76908875 133.4775238 C263.44184656 154.58660138 250.47140434 168.12884492 234.929245 183.51268005 C224.47886586 193.74409215 224.47886586 193.74409215 214.65190125 204.56297302 C211.33316431 208.35335197 207.69731697 211.84699449 204.116745 215.38768005 C202.94788757 216.5497699 202.94788757 216.5497699 201.75541687 217.7353363 C199.85732079 219.62178762 197.95691351 221.50584251 196.054245 223.38768005 C197.44109587 226.51522055 199.04669208 228.62080182 201.47489929 231.01951599 C202.17290146 231.7141394 202.87090363 232.40876282 203.59005737 233.12443542 C204.34523148 233.8661499 205.10040558 234.60786438 205.87846375 235.37205505 C207.04790276 236.53369171 207.04790276 236.53369171 208.2409668 237.71879578 C210.73652862 240.19654985 213.23864778 242.66754048 215.741745 245.13768005 C218.22616232 247.59434527 220.70906246 250.05249461 223.18896484 252.51371765 C224.731058 254.04370404 226.27581538 255.57101158 227.82369995 257.09513855 C231.15353667 260.39450734 234.38872634 263.71546516 237.44218445 267.27342224 C241.81479122 272.34923226 246.57935111 277.01789764 251.335495 281.73143005 C252.31792877 282.70944424 253.30005987 283.68776256 254.28190613 284.66636658 C257.3698507 287.742994 260.46173313 290.81564441 263.554245 293.88768005 C267.14354963 297.45321909 270.73113008 301.02045934 274.31448364 304.59197998 C275.73415657 306.00526635 277.15691498 307.41545116 278.57975769 308.82554626 C283.03874979 313.26775908 287.33845505 317.7648292 291.43699646 322.54112244 C294.10467689 325.5870523 296.96058998 328.43696255 299.8276825 331.29393005 C300.43689545 331.90409973 301.0461084 332.51426941 301.67378235 333.14292908 C302.94472163 334.41454201 304.21689696 335.68492069 305.49028015 336.9540863 C307.44898545 338.90736583 309.40220639 340.86601829 311.35502625 342.82518005 C312.59559057 344.06508473 313.83646445 345.30467979 315.0776825 346.54393005 C315.66302765 347.13129944 316.2483728 347.71866882 316.85145569 348.32383728 C319.08859338 351.1018499 319.08859338 351.1018499 322.054245 352.38768005 C322.14585306 316.14023371 322.21631038 279.8928077 322.25850631 243.64526938 C322.26350898 239.36336116 322.26868629 235.08145317 322.27397156 230.79954529 C322.27554542 229.52089967 322.27554542 229.52089967 322.27715108 228.21642283 C322.29454383 214.4242511 322.32607528 200.63214623 322.36285618 186.84001412 C322.40029708 172.68203981 322.4224875 158.52410046 322.43059897 144.36607867 C322.43608022 135.63379174 322.45337578 126.90169383 322.48591086 118.1694651 C322.50709765 112.17683416 322.51343564 106.18430057 322.5082505 100.19163492 C322.50569517 96.73706307 322.50953921 93.28282093 322.53106689 89.82830811 C322.55102992 86.07465967 322.54616 82.32181358 322.53526306 78.56814575 C322.55274011 76.94699082 322.55274011 76.94699082 322.57057023 75.29308528 C322.48282857 64.07607932 319.2880783 55.68376335 311.491745 47.6181488 C299.3330938 36.49220356 286.67495781 36.19336045 270.866745 36.32518005 C269.81938171 36.32969177 268.77201843 36.33420349 267.69291687 36.33885193 C265.14662963 36.35047881 262.60047039 36.36681725 260.054245 36.38768005 Z " fill="#00509F" transform="translate(121.94575500488281,135.61231994628906)"/>
<path d="M0 0 C162.00965241 0 162.00965241 0 178.6875 4.25 C179.55705322 4.46615967 180.42660645 4.68231934 181.32250977 4.9050293 C199.35190029 9.54342611 214.7296893 16.84853686 229 29 C230.23943359 29.94939453 230.23943359 29.94939453 231.50390625 30.91796875 C249.09928922 45.5945558 258.51431334 69.72261958 261 92 C262.36429141 115.77663337 258.04083028 136.94117014 243 156 C240.62839106 158.65682714 238.22673074 161.26924032 235.7578125 163.8359375 C233.68475644 165.92342938 233.68475644 165.92342938 234 169 C235.91818179 170.75282129 237.83183901 172.34336981 239.875 173.9375 C261.60313497 191.66043516 276.3971048 219.20856519 279.71875 247.02734375 C282.24638517 282.73019047 274.59499488 313.89362384 251.078125 341.234375 C226.3054648 367.70089231 190.39211664 374.13399028 156 377 C104.52 377 53.04 377 0 377 C0 252.59 0 128.18 0 0 Z M70 66 C70 92.73 70 119.46 70 147 C88.33781519 147.20360492 88.33781519 147.20360492 106.67578125 147.34179688 C114.15546426 147.38364184 121.63454742 147.4331411 129.11376953 147.52807617 C135.14384913 147.60413797 141.17328554 147.64599143 147.20380783 147.6641407 C149.50438947 147.67707424 151.80493591 147.70233102 154.10524368 147.7401104 C157.32826012 147.79093844 160.54861987 147.79792312 163.77197266 147.79467773 C164.72287781 147.81984467 165.67378296 147.8450116 166.65350342 147.87094116 C171.62796368 147.83438656 171.62796368 147.83438656 175.88428879 145.51921272 C179.34659312 141.57918615 181.93347249 137.0635407 184.25 132.375 C184.76530273 131.33666016 184.76530273 131.33666016 185.29101562 130.27734375 C188.2595211 123.9944875 189.56665961 117.94307603 190 111 C190.06832031 110.28714844 190.13664062 109.57429688 190.20703125 108.83984375 C190.82521268 97.68968231 186.30872449 86.99338141 179.03125 78.77734375 C165.82572415 65.97850982 148.79163792 65.69650721 131.5234375 65.8046875 C129.9450698 65.80763392 128.36670013 65.80967067 126.78833008 65.81079102 C120.98385661 65.82120894 115.17942518 65.84913133 109.375 65.875 C96.38125 65.91625 83.3875 65.9575 70 66 Z M70 213 C70 245.01 70 277.02 70 310 C84.004375 310.061875 98.00875 310.12375 112.4375 310.1875 C116.82474365 310.21481201 121.2119873 310.24212402 125.73217773 310.27026367 C129.73822435 310.28031 129.73822435 310.28031 133.74427795 310.28633118 C135.49938758 310.29087417 137.25448913 310.301289 139.00953674 310.31672668 C158.82572519 310.48199553 179.85464096 309.47417743 195 295 C205.5494777 283.74722379 208.53472584 271.66508134 208.26953125 256.6484375 C207.80047617 245.29406982 203.23521653 235.69165622 196 227 C195.34 227 194.68 227 194 227 C194 226.34 194 225.68 194 225 C182.66459667 215.77720691 168.95559853 212.82672241 154.68994141 212.88647461 C153.29123841 212.88629381 153.29123841 212.88629381 151.86427879 212.88610935 C148.86001537 212.88685293 145.85581476 212.89445582 142.8515625 212.90234375 C140.99112986 212.90381489 139.13069681 212.90483454 137.27026367 212.90539551 C130.38850278 212.91062846 123.50675077 212.92458972 116.625 212.9375 C101.23875 212.958125 85.8525 212.97875 70 213 Z " fill="#00509F" transform="translate(540,171)"/>
<path d="M0 0 C20.49871373 -0.04693155 40.9974164 -0.08209172 61.4961729 -0.10362434 C71.01626581 -0.11389256 80.53632514 -0.12786658 90.05639648 -0.15087891 C98.36388751 -0.17095038 106.67135418 -0.18374871 114.97886878 -0.18817699 C119.36871694 -0.19076133 123.75849552 -0.1967401 128.14832115 -0.21146011 C173.95153962 -0.35898817 173.95153962 -0.35898817 193.625 4.625 C194.66495117 4.88297363 195.70490234 5.14094727 196.77636719 5.40673828 C225.73911724 12.93385593 251.59932228 29.32193002 267.03125 55.4375 C283.74353006 84.90112122 285.95079009 120.64906674 277.16259766 153.01879883 C268.88325435 181.59579198 249.75185189 205.22363691 224 220 C201.66680869 232 201.66680869 232 193 232 C200.81821073 243.26294186 208.63936401 254.52306235 216.55957031 265.71459961 C220.39108027 271.13051516 224.19863103 276.56289358 228 282 C232.31902905 288.17685969 236.64892428 294.34567097 241 300.5 C245.95185729 307.50409761 250.87363783 314.52889252 255.7890625 321.55859375 C259.99185049 327.56654399 264.21349419 333.56082998 268.44775391 339.54663086 C271.1930417 343.43053202 273.92654176 347.32231796 276.6484375 351.22265625 C277.26847656 352.11082031 277.88851563 352.99898437 278.52734375 353.9140625 C279.72127569 355.62544909 280.9140648 357.3376338 282.10546875 359.05078125 C285.25752953 363.56848897 288.48241246 367.98324167 291.92041016 372.28881836 C293 374 293 374 293 377 C282.25636362 377.39541012 271.51447887 377.69667722 260.76502609 377.88080692 C255.77203694 377.96922951 250.78405261 378.08891018 245.79394531 378.2824707 C240.96941134 378.46841856 236.1496578 378.56905811 231.32181549 378.61291313 C229.48885017 378.64411921 227.65612241 378.70507741 225.8252182 378.79741096 C211.8792854 379.47216737 211.8792854 379.47216737 207.05451012 375.32959366 C203.45135308 371.24333183 200.69239229 366.73638879 198.09184074 361.96551323 C196.74151697 359.53468323 195.17622986 357.30883999 193.51953125 355.078125 C188.41770358 347.86494774 183.35118157 340.63036032 178.33203125 333.359375 C174.11646019 327.2708259 169.82507845 321.23509051 165.54833984 315.18945312 C162.53150737 310.92345602 159.51987928 306.65378379 156.50732422 302.38476562 C153.97149255 298.79171651 151.43431264 295.19963355 148.89453125 291.609375 C144.40300886 285.25772717 139.91937479 278.90212131 135.5 272.5 C132.00576314 267.4393811 128.48116796 262.40113207 124.9375 257.375 C124.46699219 256.70662109 123.99648438 256.03824219 123.51171875 255.34960938 C122.57275405 254.01983932 121.61632681 252.70220956 120.64195251 251.39816284 C119 249 119 249 117.63380432 246.21206665 C115.48283459 242.32141012 113.47961023 238.77792133 109.01894951 237.37849045 C103.21252704 236.43307578 97.3600603 236.65927824 91.5 236.8125 C89.70574163 236.81946579 87.91145671 236.82146648 86.1171875 236.81835938 C81.74239055 236.82153258 77.37342181 236.89231624 73 237 C73.00092179 237.715447 73.00184359 238.43089399 73.00279331 239.1680212 C73.02484774 256.5514238 73.04141116 273.93482286 73.05181217 291.31823635 C73.05697531 299.72461384 73.06401834 308.13098201 73.07543945 316.53735352 C73.08538575 323.86167932 73.0918533 331.18599837 73.09408849 338.51033074 C73.09539569 342.39090787 73.09848212 346.2714657 73.10573006 350.15203667 C73.11248942 353.80039557 73.11461713 357.44872711 73.11310768 361.09709167 C73.11351637 363.08288419 73.118912 365.0686737 73.12442017 367.05445862 C73.1230455 368.2254007 73.12167084 369.39634277 73.12025452 370.60276794 C73.12117631 371.62687995 73.1220981 372.65099195 73.12304783 373.70613766 C73 376 73 376 72 377 C69.79675026 377.09960152 67.5902651 377.12799757 65.38476562 377.12939453 C64.69372238 377.13114685 64.00267914 377.13289917 63.29069519 377.13470459 C60.99585493 377.13912254 58.70109111 377.13618533 56.40625 377.1328125 C54.81823715 377.13348556 53.23022441 377.13445559 51.64221191 377.13571167 C48.3098045 377.13718857 44.97742384 377.13503436 41.64501953 377.13037109 C37.3640149 377.1246738 33.08307295 377.12795285 28.80207062 377.13394356 C25.52166264 377.1375494 22.24126963 377.13641048 18.96086121 377.13381577 C17.3819325 377.13314656 15.80300246 377.1339747 14.22407532 377.13629532 C12.02109147 377.13882223 9.81821051 377.13498075 7.61523438 377.12939453 C5.73112854 377.12820114 5.73112854 377.12820114 3.80895996 377.12698364 C1 377 1 377 0 376 C-0.09780687 374.00358047 -0.12371255 372.00363464 -0.12304783 370.00482082 C-0.1260344 368.03719915 -0.1260344 368.03719915 -0.12908131 366.02982754 C-0.12622771 364.55499532 -0.1232821 363.08016329 -0.12025452 361.60533142 C-0.12069008 360.05354325 -0.12156472 358.50175515 -0.12284368 356.94996744 C-0.12509153 352.66522574 -0.12106343 348.38050879 -0.11606562 344.09577024 C-0.11176543 339.48292945 -0.11320724 334.87009016 -0.1139679 330.25724792 C-0.11449341 322.25836288 -0.11134379 314.25948596 -0.10573006 306.26060295 C-0.0976187 294.69542069 -0.09500021 283.13024238 -0.09374207 271.56505758 C-0.09155097 252.80337926 -0.08488933 234.04170527 -0.07543945 215.2800293 C-0.06626682 197.04988629 -0.05918526 178.81974446 -0.05493164 160.58959961 C-0.05466892 159.466752 -0.05440619 158.34390438 -0.05413551 157.18703108 C-0.05283051 151.55429093 -0.0515668 145.92155077 -0.05032361 140.28881061 C-0.0399492 93.52587074 -0.02232933 46.76293559 0 0 Z M73 66 C73 100.65 73 135.3 73 171 C93.604375 171.0928125 93.604375 171.0928125 114.625 171.1875 C118.9351416 171.21481201 123.2452832 171.24212402 127.68603516 171.27026367 C131.60697581 171.28030739 131.60697581 171.28030739 135.52792358 171.28633118 C137.25149877 171.29088702 138.97506544 171.30133023 140.69857788 171.31672668 C154.7855424 171.43609146 168.03341424 170.89015262 180.6875 163.9375 C181.36232422 163.58623047 182.03714844 163.23496094 182.73242188 162.87304688 C185.5914364 161.37114153 188.31144637 159.79236909 191 158 C191 157.34 191 156.68 191 156 C191.598125 155.74476563 192.19625 155.48953125 192.8125 155.2265625 C200.25697805 151.05233731 204.24391234 140.70293963 206.6875 132.9375 C210.62592008 118.87477179 209.98815014 104.72200931 202.875 91.75 C194.50596366 78.45077663 183.03529964 71.00530523 168 67 C163.00162898 65.97099196 158.22517548 65.86398631 153.14892578 65.88647461 C151.82456418 65.88629381 151.82456418 65.88629381 150.4734478 65.88610935 C147.63070993 65.88685254 144.78803856 65.89445362 141.9453125 65.90234375 C140.18416373 65.90381501 138.42301453 65.90483459 136.66186523 65.90539551 C130.14957013 65.91062706 123.6372844 65.92458832 117.125 65.9375 C102.56375 65.958125 88.0025 65.97875 73 66 Z " fill="#00509F" transform="translate(843,171)"/>
<path d="M0 0 C24.09 0 48.18 0 73 0 C73 124.41 73 248.82 73 377 C48.91 377 24.82 377 0 377 C0 252.59 0 128.18 0 0 Z " fill="#00509F" transform="translate(1158,171)"/>
</svg>
