<?xml version="1.0" encoding="UTF-8"?>
<svg version="1.1" xmlns="http://www.w3.org/2000/svg" width="2560" height="834">
<path d="M0 0 C41.53815336 -0.09172944 83.07629494 -0.16212677 124.61452968 -0.20426132 C129.5281762 -0.20926362 134.44182252 -0.21444096 139.35546875 -0.21972656 C140.8226809 -0.22130043 140.8226809 -0.22130043 142.31953369 -0.22290608 C158.11859286 -0.24027012 173.91759329 -0.27178555 189.71661772 -0.30861118 C205.95047843 -0.34613234 222.18430857 -0.36825937 238.41821086 -0.37635398 C248.42029225 -0.38181868 258.42220756 -0.3990233 268.42423777 -0.43166587 C275.30045361 -0.45295202 282.17658469 -0.45916847 289.05283101 -0.45400551 C293.00899062 -0.45146544 296.96486184 -0.45511584 300.92096901 -0.4768219 C317.98483616 -0.56584061 334.30447393 0.07874898 351 4 C352.79500285 4.39538782 352.79500285 4.39538782 354.62626839 4.79876328 C357.27013718 5.39136635 359.88330818 6.04779916 362.5 6.75 C363.90934814 7.12560059 363.90934814 7.12560059 365.34716797 7.50878906 C407.94094603 19.20733047 452.0886 42.32705276 475.16015625 81.62890625 C494.3986159 116.87899262 496.54265713 156.67458659 486.15625 195.26953125 C474.39899533 233.20256575 448.62184168 263.86509554 414 283 C399.3394952 290.5535016 399.3394952 290.5535016 392 293 C392.76852295 293.17539307 393.5370459 293.35078613 394.32885742 293.53149414 C436.48065587 303.22694171 475.10981759 317.74521156 507 348 C507.49999512 348.46744629 507.99999023 348.93489258 508.51513672 349.41650391 C521.78162005 361.88433607 531.65357101 375.8592718 540 392 C540.31952637 392.61311035 540.63905273 393.2262207 540.96826172 393.85791016 C547.76188547 407.07937446 552.10844921 421.12368568 555.25 435.625 C555.40106201 436.3149707 555.55212402 437.00494141 555.70776367 437.71582031 C558.49315528 451.4589708 559.38474888 465.2619215 559.3125 479.25 C559.31034485 480.00935852 559.3081897 480.76871704 559.30596924 481.55108643 C559.1090292 525.0133616 544.17538107 566.66168165 513.69140625 598.16796875 C511.82215387 600.13488888 510.08601027 602.06816749 508.375 604.16015625 C505.24374842 607.90426793 501.72544471 610.86639015 498 614 C497.14664062 614.74121094 496.29328125 615.48242188 495.4140625 616.24609375 C480.79583583 628.76169877 464.92470165 638.88716894 448 648 C447.1327832 648.46792969 446.26556641 648.93585937 445.37207031 649.41796875 C417.87925221 664.08354374 388.28093517 674.41881604 358.0625 681.8125 C356.9269165 682.09061523 355.79133301 682.36873047 354.62133789 682.65527344 C351.09028759 683.48825736 347.54899606 684.24715773 344 685 C342.83875673 685.26233586 341.67751347 685.52467173 340.48108101 685.79495716 C325.91055547 688.81310505 311.15310629 688.40935199 296.34980416 688.34819686 C292.36235432 688.33509356 288.37491652 688.33963593 284.38745117 688.34190369 C277.49926093 688.3434675 270.61115673 688.3341524 263.72298813 688.31719017 C253.76418805 688.29268259 243.80542906 688.28498295 233.8466021 688.2812262 C217.68433231 688.27468003 201.52210827 688.25476899 185.35986328 688.22631836 C169.67106351 688.19873007 153.98227621 688.17751991 138.29345703 688.16479492 C137.3244255 688.16400675 136.35539396 688.16321858 135.35699783 688.16240653 C130.4950621 688.15849107 125.63312628 688.15470003 120.7711904 688.15097082 C80.51409494 688.11993213 40.2570505 688.0671467 0 688 C3.6716942 685.05327768 7.38190368 682.16810542 11.125 679.3125 C39.02809965 659.19693256 39.02809965 659.19693256 55 630 C55.27744537 626.68852959 55.27046961 623.3933071 55.25447559 620.071702 C55.25768207 619.08338838 55.26088855 618.09507476 55.26419219 617.07681224 C55.27251001 613.75684288 55.26656158 610.43705308 55.26069641 607.11708069 C55.26371627 604.71610582 55.26760492 602.31513191 55.27228898 599.91415972 C55.28044469 594.68967504 55.28236362 589.46522615 55.27878571 584.24073792 C55.27347922 576.47170568 55.27957343 568.7027114 55.28786864 560.93368329 C55.30311414 546.2514632 55.30481317 531.56926035 55.30234561 516.88703401 C55.30051347 505.55050038 55.30227089 494.21397241 55.30657005 482.8774395 C55.30717245 481.24915462 55.30777365 479.62086974 55.30837366 477.99258487 C55.3092809 475.53897043 55.31018957 473.085356 55.31110601 470.63174157 C55.31953632 447.81764293 55.32387066 425.00354643 55.31969929 402.18944645 C55.31954291 401.32928564 55.31938654 400.46912483 55.31922542 399.58289853 C55.31841963 395.22318633 55.31757386 390.86347414 55.31671212 386.50376195 C55.31654103 385.63789703 55.31636994 384.7720321 55.31619367 383.87992884 C55.31584702 382.12893989 55.31549849 380.37795094 55.31514808 378.62696199 C55.30978992 351.3767021 55.31772367 324.12647456 55.33618164 296.8762207 C55.35689124 266.26587476 55.3676264 235.65554886 55.36360615 205.04519552 C55.3632108 201.78225577 55.36284926 198.51931602 55.36250877 195.25637627 C55.36241804 194.45294757 55.36232731 193.64951888 55.36223383 192.82174386 C55.36106723 180.68645772 55.36772083 168.55119181 55.37832069 156.41591072 C55.39036094 142.61745922 55.39194518 128.8190523 55.37953053 115.02060015 C55.37289279 107.29706178 55.374554 99.57362997 55.38811904 91.85010008 C55.39731437 86.08674226 55.39086852 80.32348731 55.37827124 74.56013983 C55.37560863 72.22576735 55.37803951 69.8913825 55.38600711 67.5570221 C55.39607115 64.38919919 55.38772667 61.2219392 55.37473011 58.05413914 C55.38569413 56.68807113 55.38569413 56.68807113 55.39687964 55.29440579 C55.30165645 44.13128027 50.74863365 37.74863365 43 30 C42.24589844 29.24589844 41.49179687 28.49179688 40.71484375 27.71484375 C30.79018612 18.32038486 19.05453593 11.3622683 7.10302734 4.8671875 C4.43786121 3.414561 2.15913902 2.15913902 0 0 Z M170 68 C170 138.62 170 209.24 170 282 C191.470625 282.103125 212.94125 282.20625 235.0625 282.3125 C241.81726807 282.35802002 248.57203613 282.40354004 255.53149414 282.45043945 C261.63853584 282.46717175 261.63853584 282.46717175 267.74559021 282.47721863 C270.44541363 282.48484837 273.14402623 282.50041116 275.84361267 282.52787781 C296.98852867 282.99059347 296.98852867 282.99059347 317 277 C317.74415161 276.68303162 318.48830322 276.36606323 319.25500488 276.03948975 C346.75604518 263.83469552 368.97108368 239.72295905 380 212 C381.56432244 207.71041141 382.87950745 203.42566405 384 199 C384.33837891 197.69675781 384.33837891 197.69675781 384.68359375 196.3671875 C390.61016015 168.3283975 384.38515813 136.06430713 369 112 C353.88580623 89.69615328 331.9909433 74.5556794 305.72829151 68.47393131 C302.87603534 67.97846611 300.24352862 67.87701272 297.34953308 67.87974548 C296.22590709 67.87836799 295.10228109 67.87699049 293.94460583 67.87557125 C292.71660417 67.87916936 291.4886025 67.88276747 290.22338867 67.88647461 C288.9044653 67.88635407 287.58554193 67.88623354 286.22665119 67.88610935 C282.66539202 67.88588399 279.10416657 67.89167152 275.54291534 67.89871979 C272.19873651 67.90442307 268.8545591 67.90468337 265.51037598 67.90539551 C255.73607953 67.9106387 245.96178934 67.92459989 236.1875 67.9375 C214.345625 67.958125 192.50375 67.97875 170 68 Z M170 339 C170 428.43 170 517.86 170 610 C194.564375 610.0825 219.12875 610.165 244.4375 610.25 C252.16599365 610.28641602 259.8944873 610.32283203 267.85717773 610.36035156 C274.84369305 610.37373728 274.84369305 610.37373728 281.83021545 610.3817749 C284.91875432 610.38547023 288.00701233 610.40033302 291.09547424 610.42230225 C314.87096657 610.87038091 314.87096657 610.87038091 338 606 C339.02634552 605.66922958 340.05269104 605.33845917 341.11013794 604.99766541 C343.63264286 604.16013579 346.09336399 603.23291086 348.5625 602.25 C349.88145264 601.73457642 349.88145264 601.73457642 351.22705078 601.20874023 C372.76943148 592.62657786 392.71627937 580.86254252 409.74609375 565.04296875 C411.3096893 563.62570623 412.92708582 562.26646613 414.58203125 560.95703125 C430.94654721 547.71208376 442.70591438 525.41960174 448.6875 505.5625 C448.89012451 504.89500732 449.09274902 504.22751465 449.30151367 503.53979492 C457.65266037 474.48672347 454.38452819 441.99271856 440.16235352 415.35205078 C426.4818262 391.11562448 405.3292479 372.7948073 380.87890625 359.98632812 C379.12792658 359.0671548 377.39142534 358.12054563 375.65625 357.171875 C356.80489597 347.20758787 334.05171284 338.86155974 312.50160217 338.87974548 C311.2408767 338.87836799 309.98015123 338.87699049 308.68122196 338.87557125 C307.29667704 338.87911718 305.91213236 338.88275507 304.52758789 338.88647461 C303.03490165 338.88678125 301.54221526 338.88664694 300.04952908 338.88610935 C296.0657294 338.88588434 292.08195998 338.89166448 288.09816742 338.89871979 C284.35479135 338.9044305 280.6114225 338.90468377 276.86804199 338.90539551 C265.93285735 338.91063504 254.99767829 338.92459626 244.0625 338.9375 C219.621875 338.958125 195.18125 338.97875 170 339 Z " fill="#005D69" transform="translate(911,86)"/>
<path d="M0 0 C21.39858143 -1.01082434 42.7931684 -1.76564421 64.21088696 -2.22792339 C74.16044221 -2.44844927 84.09492204 -2.74912381 94.03491211 -3.24389648 C160.17970153 -6.47151256 160.17970153 -6.47151256 174.34594727 4.0541687 C184.33669233 13.18956244 189.817036 25.06984333 194.64503479 37.48370361 C197.93225632 45.66785226 203.03548677 52.67123252 208.12911415 59.81543732 C210.6578761 63.40273736 213.06250275 67.07193824 215.48046875 70.734375 C222.83535182 81.77872179 230.29416972 92.75225801 237.76513672 103.71826172 C240.0349014 107.05125022 242.3012539 110.38653279 244.56640625 113.72265625 C251.92058036 124.55152734 259.29152538 135.36813034 266.72167969 146.14501953 C268.52027151 148.75497 270.3157137 151.36708084 272.11108398 153.97924805 C273.03488182 155.32329352 273.95887182 156.66720692 274.88305664 158.01098633 C277.13951681 161.29198411 279.39412003 164.57422486 281.64453125 167.859375 C288.43123713 177.76045116 295.30333349 187.60010968 302.19726562 197.42675781 C303.98409953 199.9773035 305.76623555 202.53106421 307.546875 205.0859375 C313.70693587 213.91908731 319.92254545 222.70560436 326.24633789 231.42236328 C329.87009128 236.42121396 333.44873244 241.44943805 337 246.5 C351.70784817 267.38982735 366.97803261 287.84003463 382.54052734 308.09960938 C383.91008858 309.88292565 385.27760235 311.66779069 386.64453125 313.453125 C391.25889408 319.47381263 395.91858141 325.4570703 400.61157227 331.41650391 C410.15864824 343.54553539 419.6016313 355.75553628 429 368 C430.60405092 370.08342246 432.20822017 372.1667538 433.8125 374.25 C439.33788191 381.43026385 444.83863888 388.62933255 450.33984375 395.828125 C451.94465094 397.9275904 453.55027916 400.02642464 455.15625 402.125 C478.70751383 432.9017214 478.70751383 432.9017214 488.42651367 445.90917969 C492.53901266 451.40538118 496.7057789 456.8592599 500.875 462.3125 C506.56259436 469.75547468 512.17927679 477.24470607 517.69287109 484.81762695 C521.6322508 490.20878505 525.67566121 495.51683606 529.7355957 500.81738281 C530.3386277 501.60529205 530.9416597 502.39320129 531.56296539 503.20498657 C533.04164983 505.1369085 534.52067023 507.06857221 536 509 C536.09152788 450.42453829 536.16203278 391.84907991 536.20426132 333.27356136 C536.20925064 326.36035263 536.21443686 319.44714405 536.21972656 312.53393555 C536.22051112 311.50201707 536.22051112 311.50201707 536.22131152 310.44925176 C536.2383555 288.15280392 536.26839968 265.85639664 536.30518888 243.55997337 C536.3439973 219.9969776 536.36798531 196.43401788 536.37635398 172.87098879 C536.3818462 158.75535842 536.39920161 144.63984449 536.43166587 130.52424996 C536.45278715 120.84856654 536.45920543 111.17294345 536.45400551 101.49723864 C536.45144004 95.9123839 536.45541098 90.32773285 536.4768219 84.7429142 C536.49628212 79.6296164 536.49727325 74.51665934 536.48359558 69.40334588 C536.48190502 67.55393137 536.48698357 65.70449563 536.49953273 63.85512293 C536.59398326 49.07610001 534.52994634 40.8055495 524.03515625 29.97265625 C512.30496643 18.33226692 498.4006251 9.02782535 484 1 C484 0.67 484 0.34 484 0 C547.69 0 611.38 0 677 0 C674.13058903 2.15205823 672.2535692 3.47519716 669.12109375 4.83984375 C650.84852215 13.02229816 624.48469928 24.93290745 615.93261683 44.43391573 C614.62961812 49.41624401 614.7207701 54.16597619 614.73828697 59.2956295 C614.73429091 60.44389318 614.73029485 61.59215685 614.72617769 62.7752164 C614.71708746 65.96769009 614.71694063 69.16002114 614.72052841 72.35250118 C614.72223388 75.82359204 614.71237588 79.29465302 614.70397437 82.76573145 C614.69084309 88.85082949 614.68511604 94.93589973 614.68421364 101.02101135 C614.68283837 110.06936211 614.67005942 119.11767153 614.6549259 128.16600845 C614.62979358 143.38627602 614.6139363 158.60654011 614.60334396 173.82682419 C614.59282425 188.89932378 614.57819506 203.97181014 614.55806351 219.04430008 C614.55619021 220.44943706 614.55619021 220.44943706 614.55427906 221.88296064 C614.54791541 226.64017733 614.5414782 231.39739392 614.53501268 236.15461047 C614.489336 269.86006544 614.45289435 303.56552471 614.421875 337.27099609 C614.39171686 370.01774729 614.35738103 402.76448975 614.31738281 435.51123047 C614.31553631 437.02501943 614.31553631 437.02501943 614.3136525 438.56938998 C614.30128577 448.70401071 614.28883403 458.83863133 614.27632002 468.97325187 C614.25082889 489.6190997 614.22590516 510.26494819 614.20132446 530.91079712 C614.20019355 531.86008389 614.19906264 532.80937066 614.19789747 533.7874237 C614.12242753 597.19160564 614.06018452 660.59580194 614 724 C612.41785727 723.22595134 610.83767243 722.4479001 609.25830078 721.66821289 C608.37812286 721.23537491 607.49794495 720.80253693 606.59109497 720.35658264 C602.78175971 718.3621833 599.34572442 715.96399559 595.875 713.4375 C595.15344727 712.91937744 594.43189453 712.40125488 593.68847656 711.86743164 C591.4517533 710.25464413 589.22465691 708.62938162 587 707 C585.9495752 706.23429688 585.9495752 706.23429688 584.87792969 705.453125 C576.65969542 699.44525897 568.70826745 693.21566843 561 686.56640625 C558.27214878 684.23281478 555.49560233 681.98561718 552.6875 679.75 C545.84034854 674.17304475 539.50146077 668.06279382 533.10253906 661.98486328 C531.01645047 660.01552976 528.91398578 658.0655262 526.8046875 656.12109375 C519.67997801 649.54049879 512.84513613 642.86675687 506.3828125 635.6328125 C504.28185681 633.31142868 502.12285589 631.11483492 499.875 628.9375 C496.0374272 625.16232676 492.718618 621.04982483 489.3515625 616.85546875 C486.98510612 613.98191458 484.52241697 611.23717383 482 608.5 C477.58220141 603.68920706 473.42757162 598.7199219 469.328125 593.63720703 C466.65708173 590.344557 463.94926897 587.08201116 461.25 583.8125 C452.11284582 572.72434327 443.00702781 561.61657679 434.16552734 550.29052734 C430.64598242 545.79269415 427.05109877 541.35997194 423.4375 536.9375 C418.6735769 531.10221733 414.02724544 525.194824 409.45703125 519.20703125 C406.8559742 515.80145877 404.21308007 512.42960435 401.5625 509.0625 C401.10472168 508.48097168 400.64694336 507.89944336 400.17529297 507.30029297 C399.24740379 506.1220986 398.31934346 504.94403901 397.39111328 503.76611328 C395.09125768 500.84628958 392.79580474 497.92300912 390.5 495 C387.78663406 491.54570963 385.07274644 488.09183949 382.35546875 484.640625 C375.46932252 475.89140702 368.62901091 467.10702728 361.79833984 458.31445312 C358.86700636 454.54184364 355.93337972 450.77101849 353 447 C352.13846313 445.89217163 352.13846313 445.89217163 351.25952148 444.76196289 C348.29389134 440.94853535 345.32737734 437.13580037 342.359375 433.32421875 C334.75613026 423.55812315 327.19039626 413.76481646 319.65625 403.9453125 C314.79260269 397.61309636 309.90519801 391.30009723 305 385 C299.30627866 377.68714576 293.64267982 370.35229969 288 363 C286.33390746 360.83289152 284.66693223 358.66646261 283 356.5 C282.16275248 355.41146444 281.32551287 354.32292279 280.48828125 353.234375 C278.86133583 351.11928247 277.2336002 349.00480548 275.60546875 346.890625 C270.32880588 340.03693042 265.06912969 333.17047001 259.81713867 326.29785156 C256.55201597 322.02626667 253.28020867 317.76001126 250 313.5 C245.59227096 307.77567658 241.20314475 302.03729383 236.81640625 296.296875 C233.55151324 292.02562673 230.27996042 287.75968886 227 283.5 C217.60659832 271.29763897 208.27279539 259.04975174 198.94287109 246.79882812 C194.80119122 241.36132177 190.65394106 235.92814419 186.5 230.5 C178.29527622 219.77770073 170.11839379 209.03419592 161.93847656 198.29296875 C159.89661793 195.61187742 157.85456151 192.93093681 155.8125 190.25 C155.22041748 189.47237305 154.62833496 188.69474609 154.01831055 187.89355469 C149.76455311 182.30902881 145.5018175 176.73140033 141.23706055 171.15527344 C140.63600243 170.36933807 140.03494431 169.58340271 139.4156723 168.77365112 C137.94381271 166.8490769 136.47192114 164.92452715 135 163 C134.9313478 222.06802395 134.87847221 281.13604694 134.84680401 340.20410239 C134.84306204 347.17610739 134.83917237 354.14811231 134.83520508 361.12011719 C134.83461666 362.16080858 134.83461666 362.16080858 134.83401636 363.22252404 C134.82123481 385.70597974 134.79870274 408.18941281 134.77110834 430.6728548 C134.74199777 454.43483341 134.72401008 478.1967945 134.71773452 501.9587909 C134.71361622 516.19262737 134.70060431 530.42639886 134.6762506 544.66021533 C134.66040453 554.41813051 134.65559709 564.17601204 134.65949587 573.93393914 C134.66141915 579.56546359 134.65845078 585.19687439 134.64238358 590.82837868 C134.62777732 595.9854742 134.62705248 601.14237973 134.63730332 606.29948403 C134.63857014 608.16371804 134.63477083 610.02796394 134.62535045 611.89217459 C134.52853381 632.23669449 139.79456603 644.23197459 154 659 C155.14082031 660.21816406 155.14082031 660.21816406 156.3046875 661.4609375 C162.97908974 668.39793918 170.35700466 674.1920521 178 680 C179.79362238 681.37244789 181.58561469 682.74703242 183.375 684.125 C184.43847656 684.93324219 184.43847656 684.93324219 185.5234375 685.7578125 C186.01070312 686.16773438 186.49796875 686.57765625 187 687 C187 687.33 187 687.66 187 688 C125.29 688 63.58 688 0 688 C3.62917557 684.37082443 7.25617081 681.01504204 11.1875 677.75 C16.90414621 672.95275201 22.52248302 668.07072383 28 663 C28.67417969 662.3915625 29.34835937 661.783125 30.04296875 661.15625 C34.27777351 657.16657366 37.82094852 652.80653774 41.25 648.125 C41.6625 647.57239502 42.075 647.01979004 42.5 646.45043945 C48.21571485 638.40923591 50.60425952 630.48629063 50.50615788 620.6769104 C50.51532791 619.18508134 50.51532791 619.18508134 50.52468321 617.66311431 C50.54024895 614.33978194 50.52743047 611.01718288 50.5146637 607.69384766 C50.51999029 605.28345629 50.52705662 602.87306825 50.53571075 600.46268654 C50.5504598 595.22684035 50.55280498 589.99114061 50.54411316 584.75528717 C50.5312228 576.96931746 50.54121729 569.18349272 50.55561271 561.39753169 C50.58053259 547.49063745 50.58243949 533.58381133 50.57433859 519.67690128 C50.56726405 507.50669902 50.56721009 495.3365232 50.57420158 483.1663208 C50.57511292 481.53342299 50.57602368 479.90052517 50.57693387 478.26762736 C50.57831701 475.80696917 50.5797081 473.34631099 50.58112001 470.88565282 C50.59409898 448.01189065 50.59921722 425.13813732 50.5875864 402.26437378 C50.58714843 401.40229573 50.58671046 400.54021768 50.58625922 399.65201606 C50.58265244 392.65145037 50.57881764 385.65088481 50.57496829 378.65031925 C50.56011865 351.33910806 50.568904 324.02799686 50.59692383 296.71679688 C50.62834908 266.02765946 50.6433228 235.33858123 50.63312382 204.64942741 C50.63208704 201.37751135 50.63109981 198.10559528 50.6301403 194.8336792 C50.62989142 194.02805855 50.62964253 193.22243791 50.6293861 192.39240451 C50.62594577 180.23027092 50.63525309 168.0681896 50.65091133 155.90606689 C50.66867579 142.07624161 50.66881828 128.24654356 50.64555968 114.41672373 C50.6330558 106.67797323 50.63431294 98.93951507 50.65544054 91.20078171 C50.66966411 85.42264983 50.65775045 79.64480758 50.63564359 73.86671138 C50.63074935 71.52903016 50.63430561 69.19131293 50.64713103 66.85366178 C50.66330672 63.67626281 50.64867203 60.50041872 50.62641239 57.3230896 C50.64439991 55.96137591 50.64439991 55.96137591 50.66275081 54.57215285 C50.49555928 42.88605416 43.95618833 34.95618833 36 27 C35.34515625 26.34515625 34.6903125 25.6903125 34.015625 25.015625 C24.45069078 16.04386499 12.98900054 8.41808849 1.58984375 1.98828125 C1.06519531 1.66214844 0.54054688 1.33601563 0 1 C0 0.67 0 0.34 0 0 Z " fill="#005D69" transform="translate(1540,86)"/>
<path d="M0 0 C70.62 0 141.24 0 214 0 C210.07899519 3.13680385 206.58930152 5.36188933 202.1875 7.5625 C186.4746714 15.70707074 165.7207268 27.9271868 158.64142232 44.90541209 C157.42963744 48.86253966 157.58947661 52.85017815 157.61968327 56.95673943 C157.61502335 57.9481302 157.61036343 58.93952097 157.6055623 59.96095389 C157.59358717 63.29147605 157.6030177 66.62159217 157.61231995 69.95211792 C157.60814815 72.36063102 157.60267148 74.76914215 157.59600013 77.17764962 C157.58453511 82.41864336 157.58242285 87.65955551 157.58855057 92.90055466 C157.59763845 100.694183 157.58961216 108.4877285 157.57825933 116.28135049 C157.55858357 130.20103713 157.55624676 144.12068656 157.56145453 158.04038378 C157.56601017 170.22292293 157.56541445 182.40544733 157.55961418 194.58798599 C157.55885732 196.22158602 157.55810134 197.85518605 157.55734624 199.48878608 C157.55620105 201.95042213 157.55505118 204.41205818 157.55388699 206.87369422 C157.54318039 229.76281203 157.53845837 252.65192492 157.54635715 275.54104424 C157.54665433 276.40404555 157.5469515 277.26704686 157.54725768 278.15619973 C157.54970666 285.16455385 157.55231822 292.17290791 157.55494181 299.18126197 C157.56504426 326.51881386 157.55668953 353.85630433 157.53344727 381.19384766 C157.50738037 411.90345696 157.49452523 442.61302929 157.50163502 473.32265007 C157.50235108 476.59656087 157.50302547 479.87047167 157.50367546 483.14438248 C157.50384527 483.95051005 157.50401508 484.75663762 157.50419003 485.5871933 C157.5064939 497.76079866 157.49851186 509.93436971 157.48538399 522.10796738 C157.47048204 535.95141834 157.46961707 549.79478884 157.4874549 563.63823806 C157.49702703 571.38603414 157.49556451 579.13364261 157.47822021 586.88142621 C157.46651266 592.6646278 157.47568795 598.44764523 157.49304258 604.23082568 C157.4968219 606.57194462 157.49382543 608.91308615 157.48343093 611.25418507 C157.47031604 614.43366264 157.48179627 617.61214391 157.49942875 620.79157829 C157.48977824 621.70287198 157.48012773 622.61416566 157.47018477 623.5530743 C157.63418569 637.93233112 167.058859 648.54175276 176.77246094 658.19848633 C186.87151592 667.94556026 198.38676842 676.02113917 209.88696289 684.01879883 C211.2744088 684.98945607 212.63996752 685.99129128 214 687 C214 687.33 214 687.66 214 688 C143.38 688 72.76 688 0 688 C3.68676566 684.31323434 6.99622879 681.38118131 11.125 678.3125 C16.56295964 674.21347307 21.60560771 669.86897147 26.5859375 665.21875 C28.50693229 663.4531755 30.44409451 661.84795498 32.5 660.25 C35.96351695 657.29680801 38.77536231 653.84324283 41.625 650.3125 C42.08068359 649.76045898 42.53636719 649.20841797 43.00585938 648.63964844 C44.43935902 646.81396493 45.71931816 644.93617986 47 643 C47.43899956 642.35224301 47.87799912 641.70448601 48.3303017 641.03710002 C53.93547513 631.03433566 52.68892393 619.58458983 52.62818909 608.48420715 C52.63323641 606.06327673 52.64046667 603.64235004 52.64968723 601.22143191 C52.66466188 595.96567739 52.66416246 590.71016095 52.64986038 585.45441437 C52.62865126 577.63900181 52.63614555 569.82379769 52.6492356 562.00837673 C52.6716721 548.04928223 52.66570877 534.09030894 52.6477995 520.13121435 C52.63222632 507.91719939 52.6263809 495.70322692 52.6301403 483.4892025 C52.63037711 482.67872042 52.63061391 481.86823834 52.63085788 481.0331962 C52.63183282 477.74313945 52.63285363 474.45308272 52.63394299 471.16302601 C52.64402288 440.30916309 52.62576925 409.4553748 52.59422263 378.60152943 C52.56635466 351.18948606 52.5614023 323.77753141 52.57641602 296.36547852 C52.58023845 289.34427044 52.58403324 282.32306235 52.5875864 275.30185413 C52.58802422 274.43745962 52.58846203 273.5730651 52.58891311 272.68247681 C52.60015119 249.77453032 52.59280547 226.86659036 52.57970566 203.958646 C52.57831709 201.4939847 52.57693638 199.0293234 52.57556724 196.56466209 C52.57465786 194.92968409 52.57373519 193.29470609 52.57279913 191.6597281 C52.56600253 179.45128768 52.56866414 167.24287287 52.57574654 155.03443336 C52.58371009 141.15554201 52.57715721 127.27673995 52.5515715 113.39786819 C52.53764175 105.62985303 52.53467153 97.86201766 52.5475062 90.09399958 C52.55583841 84.2976755 52.54329988 78.50154784 52.52253198 72.70526191 C52.51735824 70.35755504 52.51896035 68.00982172 52.52792663 65.66212628 C52.53908449 62.47620502 52.52572571 59.29129459 52.50615788 56.10543537 C52.51523669 55.18944937 52.52431551 54.27346338 52.53366944 53.32972023 C52.4008127 42.26758619 46.63213245 35.54045519 39 28 C27.87244996 17.76520469 15.25343067 9.6438841 2.09765625 2.27734375 C1.40542969 1.85582031 0.71320312 1.43429688 0 1 C0 0.67 0 0.34 0 0 Z " fill="#005D69" transform="translate(2324,86)"/>
<path d="M0 0 C76.23 0 152.46 0 231 0 C228.36 6.6 225.72 13.2 223 20 C198.08978374 95.86293134 217.22662075 178.4200512 251.875 247.9375 C252.8748457 249.91342725 253.88269716 251.88494202 254.89599609 253.85400391 C255.67060864 255.35971914 256.44144303 256.86738119 257.20947266 258.37646484 C275.18712771 293.66593587 296.97267812 326.83824174 320.35986328 358.75830078 C322.06818705 361.09319641 323.76671973 363.43502205 325.46484375 365.77734375 C332.5665248 375.53601612 339.94175929 384.99795506 347.61816406 394.30957031 C350.48458533 397.81612523 353.25087666 401.40114763 356 405 C352.48927666 408.5946193 348.84635643 411.9519837 345 415.1875 C344.43385986 415.66525879 343.86771973 416.14301758 343.28442383 416.63525391 C338.97446736 420.24467104 334.5636979 423.69187768 330.08569336 427.09082031 C325.67138592 430.45197478 321.35834243 433.92655407 317.0625 437.4375 C311.41226995 442.05537241 305.72518281 446.61718718 299.9597168 451.09057617 C297.19424235 453.24327613 294.47567694 455.42648966 291.82421875 457.71875 C290.85097656 458.5540625 289.87773437 459.389375 288.875 460.25 C288.02679688 460.99765625 287.17859375 461.7453125 286.3046875 462.515625 C284 464 284 464 282.01171875 464.08984375 C278.97784728 462.44625124 277.06567613 459.95762807 274.9375 457.3125 C274.45780762 456.73089111 273.97811523 456.14928223 273.48388672 455.55004883 C269.67416248 450.90512059 265.95891916 446.18369653 262.26733398 441.44458008 C258.73682524 436.91424819 255.1326939 432.44868736 251.5 428 C246.99222351 422.47674994 242.55157061 416.90815183 238.1640625 411.2890625 C234.66223753 406.81563292 231.09188836 402.40132798 227.5 398 C222.99240027 392.47660315 218.55157358 386.90815564 214.1640625 381.2890625 C210.66223753 376.81563292 207.09188836 372.40132798 203.5 368 C198.99240027 362.47660315 194.55157358 356.90815564 190.1640625 351.2890625 C186.66223753 346.81563292 183.09188836 342.40132798 179.5 338 C174.99240027 332.47660315 170.55157358 326.90815564 166.1640625 321.2890625 C162.66223753 316.81563292 159.09188836 312.40132798 155.5 308 C150.99240027 302.47660315 146.55157358 296.90815564 142.1640625 291.2890625 C138.66223753 286.81563292 135.09188836 282.40132798 131.5 278 C126.99240027 272.47660315 122.55157358 266.90815564 118.1640625 261.2890625 C114.66223753 256.81563292 111.09188836 252.40132798 107.5 248 C102.99240027 242.47660315 98.55157358 236.90815564 94.1640625 231.2890625 C90.66223753 226.81563292 87.09188836 222.40132798 83.5 218 C78.99305682 212.47740765 74.55215545 206.91031228 70.16625977 201.29125977 C66.64624747 196.79336017 63.05137401 192.36019092 59.4375 187.9375 C55.5330876 183.15617906 51.68124526 178.34576383 47.9375 173.4375 C44.37116242 168.76317404 40.74393535 164.14666279 37.0625 159.5625 C33.1627977 154.70654886 29.28172141 149.83752386 25.4375 144.9375 C24.98914795 144.36612305 24.5407959 143.79474609 24.07885742 143.20605469 C22.25008942 140.87392282 20.4227828 138.54065577 18.59716797 136.20605469 C17.65125788 134.99646603 16.70488388 133.78724002 15.75805664 132.57836914 C14.88510179 131.46379148 14.01306853 130.34849081 13.14233398 129.23217773 C8.84550683 123.74792513 4.4157031 118.39697046 0 113 C0 75.71 0 38.42 0 0 Z " fill="#F15A22" transform="translate(38,79)"/>
<path d="M0 0 C0.59876953 0.45068848 1.19753906 0.90137695 1.81445312 1.36572266 C12.26120156 9.26120156 12.26120156 9.26120156 15 12 C15.24839699 13.93476069 15.24839699 13.93476069 15.24609566 16.35346413 C15.25007775 17.27357926 15.25405985 18.19369439 15.25816262 19.1416918 C15.25233693 20.15918552 15.24651125 21.17667924 15.24050903 22.2250061 C15.24221788 23.30068922 15.24392673 24.37637234 15.24568737 25.48465192 C15.24899903 29.11304394 15.23795099 32.74125373 15.22705078 36.36962891 C15.22648703 38.96102392 15.22680252 41.55241926 15.22793579 44.14381409 C15.22898602 49.73522476 15.22269509 55.32658886 15.21146011 60.91798782 C15.19522666 69.00226915 15.18999932 77.08652788 15.18748413 85.17082374 C15.18310363 98.28609579 15.16978494 111.401343 15.15087891 124.51660156 C15.13252927 137.25911332 15.11836828 150.00161833 15.10986328 162.74414062 C15.10933783 163.52919501 15.10881239 164.3142494 15.10827102 165.12309332 C15.105661 169.06136275 15.10313357 172.99963223 15.10064721 176.93790174 C15.07990368 209.62528591 15.04466852 242.31263963 15 275 C12.501457 276.27909948 9.99983304 277.55145542 7.49609375 278.8203125 C6.4511676 279.35652222 6.4511676 279.35652222 5.38513184 279.90356445 C-19.91593223 292.68217535 -48.01513322 294.10747512 -74.875 285.5 C-102.0742136 276.19611338 -125.42267048 258.08578858 -146.15625 238.6328125 C-148.21126462 236.73023028 -150.27863536 234.91210749 -152.41015625 233.1015625 C-158.52072919 227.77554271 -164.19789354 221.98810892 -169.92651367 216.25878906 C-171.92411952 214.26336586 -173.92959353 212.27608944 -175.93554688 210.2890625 C-183.09304097 203.16259696 -189.75471794 195.94706036 -196 188 C-197.47465508 186.24619658 -198.95338056 184.49580168 -200.4375 182.75 C-228.31607926 148.44533574 -243.60254708 103.38687619 -239.55517578 59.02490234 C-236.68292936 34.31895978 -226.12068958 11.82282421 -210 -7 C-209.31292969 -7.82113281 -208.62585938 -8.64226562 -207.91796875 -9.48828125 C-187.794938 -32.80199075 -158.50821927 -46.50607357 -127.91796875 -48.8359375 C-81.07756581 -51.46953445 -36.40865965 -27.414725 0 0 Z " fill="#F15922" transform="translate(723,282)"/>
<path d="M0 0 C22.64582589 -0.03261533 45.29165385 -0.05160336 67.9375 -0.0625 C68.81286801 -0.0629343 69.68823602 -0.06336861 70.59013033 -0.06381607 C140.95697925 -0.09773518 211.32156299 0.15691781 281.6875 0.5 C282.91464643 0.50597372 284.14179286 0.51194743 285.40612555 0.51810217 C293.96663427 0.55981219 302.52714113 0.60189028 311.08764648 0.64428711 C312.69976145 0.65226938 312.69976145 0.65226938 314.34444439 0.66041291 C336.22965386 0.76907794 358.11482037 0.88529995 380 1 C380 33.34 380 65.68 380 99 C375.67686677 98.13537335 372.45113016 97.02109563 368.4375 95.3125 C319.35133917 75.18558155 263.00542978 74.82524415 213.94189453 95.17724609 C190.65831073 105.04217914 169.81119859 118.48293284 151.34765625 135.8046875 C149.24031561 137.77527892 147.08186306 139.64295281 144.875 141.5 C104.96123252 176.56594147 90.32527964 235.30542616 85 286 C80.7145719 284.57152397 78.92562527 281.37457321 76.3125 277.875 C75.74797119 277.12581299 75.18344238 276.37662598 74.60180664 275.60473633 C62.97078649 260.03613947 52.08837539 244.08789025 42.33203125 227.27880859 C41.08620554 225.14747847 39.81539059 223.03418732 38.53125 220.92578125 C9.71445833 173.38624831 -12.46476674 119.44312875 -12.31567383 63.11914062 C-12.31251103 60.63366844 -12.3361026 58.1493893 -12.36132812 55.6640625 C-12.43246327 37.78145973 -10.07739376 19.93367364 -1.91381836 3.78564453 C-1.55501083 3.0740921 -1.19620331 2.36253967 -0.82652283 1.62942505 C-0.55377029 1.09171478 -0.28101776 0.55400452 0 0 Z " fill="#F15922" transform="translate(358,78)"/>
<path d="M0 0 C3.17365512 1.61969969 5.08254696 4.26030032 7.26171875 6.99609375 C8.24485636 8.19372518 9.22924519 9.39033051 10.21484375 10.5859375 C10.70017578 11.17874512 11.18550781 11.77155273 11.68554688 12.38232422 C15.01037385 16.39573175 18.55553935 20.21582546 22.07421875 24.05859375 C22.53441406 24.56390625 22.99460937 25.06921875 23.46875 25.58984375 C31.9382188 34.88614724 40.46093726 44.11492292 50.03515625 52.296875 C52.30114105 54.25465114 54.49565369 56.28088323 56.69921875 58.30859375 C97.14611284 94.69232953 147.55198803 121.52642703 202.88671875 121.49609375 C203.6467923 121.49649658 204.40686584 121.49689941 205.18997192 121.49731445 C241.82093117 121.38627529 275.56212215 108.40362007 301.76171875 82.62109375 C303.93041504 80.40865905 305.90927704 78.28778829 307.71875 75.7734375 C308.16605469 75.20753906 308.61335938 74.64164063 309.07421875 74.05859375 C309.73421875 74.05859375 310.39421875 74.05859375 311.07421875 74.05859375 C311.07421875 131.80859375 311.07421875 189.55859375 311.07421875 249.05859375 C232.20421875 249.05859375 153.33421875 249.05859375 72.07421875 249.05859375 C76.14957524 244.30401118 79.84247949 240.29637888 84.57421875 236.37109375 C85.80868416 235.32953423 87.04305643 234.28786431 88.27734375 233.24609375 C88.90447266 232.72015625 89.53160156 232.19421875 90.17773438 231.65234375 C93.2422954 229.07697629 96.28404535 226.47516643 99.32421875 223.87109375 C99.90413574 223.37528809 100.48405273 222.87948242 101.08154297 222.36865234 C105.45303467 218.62041791 109.74265748 214.78905177 113.98828125 210.8984375 C115.94948241 209.16861401 117.97430398 207.61419789 120.07421875 206.05859375 C119.47697998 206.08477783 118.87974121 206.11096191 118.2644043 206.13793945 C97.49911805 206.92217199 80.64506221 203.18929477 62.07421875 194.05859375 C61.3373584 193.70168457 60.60049805 193.34477539 59.84130859 192.97705078 C42.03837072 184.27247551 25.74286902 173.38744391 11.07421875 160.05859375 C10.46545898 159.51009766 9.85669922 158.96160156 9.22949219 158.39648438 C-0.72244774 149.38925397 -10.04208153 139.87711516 -19.13183594 130.00537109 C-20.76686895 128.23104431 -22.41071584 126.46551285 -24.05859375 124.703125 C-29.08361708 119.30762064 -33.86631182 113.77179147 -38.48828125 108.02734375 C-41.35504573 104.53577163 -44.32362281 101.14341393 -47.30078125 97.74609375 C-52.95926163 91.2655183 -58.33787856 84.61202609 -63.58203125 77.79345703 C-64.98415932 75.9832241 -66.4060713 74.18994266 -67.83203125 72.3984375 C-68.75927743 71.22278467 -69.6863666 70.04700799 -70.61328125 68.87109375 C-71.04793701 68.3301709 -71.48259277 67.78924805 -71.93041992 67.23193359 C-74.92578125 63.39850775 -74.92578125 63.39850775 -74.92578125 60.05859375 C-73.1953125 58.40234375 -73.1953125 58.40234375 -70.73828125 56.55859375 C-66.53607758 53.32521497 -62.45300278 50.00421771 -58.42578125 46.55859375 C-53.85754991 42.66667037 -49.22400693 38.87926604 -44.51953125 35.15234375 C-41.44498776 32.67048334 -38.43399081 30.12010862 -35.42578125 27.55859375 C-30.86427273 23.6744322 -26.24046101 19.89136478 -21.54296875 16.171875 C-17.76828519 13.12395887 -14.07744926 9.97949097 -10.390625 6.82617188 C-8.90912285 5.56232251 -7.41779063 4.31002167 -5.92578125 3.05859375 C-4.87003906 2.12466797 -4.87003906 2.12466797 -3.79296875 1.171875 C-1.92578125 0.05859375 -1.92578125 0.05859375 0 0 Z " fill="#F15922" transform="translate(426.92578125,524.94140625)"/>
<path d="M0 0 C3.99000232 1.33000077 5.55541081 3.95016422 8 7.1875 C8.99205826 8.47535999 9.98424933 9.76311767 10.9765625 11.05078125 C11.4809082 11.71029785 11.98525391 12.36981445 12.50488281 13.04931641 C14.77296841 16.00849405 17.0717624 18.94314676 19.375 21.875 C19.82222412 22.44557129 20.26944824 23.01614258 20.73022461 23.60400391 C24.29004546 28.13217143 27.91900437 32.60153296 31.5625 37.0625 C36.28835664 42.84867154 40.87667911 48.71486481 45.40625 54.65625 C48.36211063 58.49886881 51.43107807 62.2475131 54.5 66 C59.24855577 71.80623873 63.85853224 77.69106177 68.40625 83.65625 C71.36211063 87.49886881 74.43107807 91.2475131 77.5 95 C82.24855577 100.80623873 86.85853224 106.69106177 91.40625 112.65625 C94.36211201 116.49887061 97.43112564 120.24747212 100.5 124 C104.42612763 128.80176754 108.30182896 133.62990957 112.0625 138.5625 C116.12342779 143.88507526 120.27635829 149.12475401 124.46899414 154.34399414 C127.83942385 158.54207853 131.18093915 162.76120661 134.5 167 C138.30428465 171.85695647 142.13990432 176.6872843 146 181.5 C150.31861975 186.88439737 154.59921126 192.29668757 158.85546875 197.73046875 C162.21052303 202.00840329 165.59850489 206.25892647 169 210.5 C175.62221877 218.75886045 182.15989498 227.08287758 188.67578125 235.42578125 C189.57534501 236.5756584 190.47508505 237.72539767 191.375 238.875 C191.81714844 239.44089844 192.25929687 240.00679687 192.71484375 240.58984375 C195.27257294 243.84912152 197.87088835 247.06930887 200.51171875 250.26171875 C201.10227051 250.9779541 201.69282227 251.69418945 202.30126953 252.43212891 C203.4490701 253.82049981 204.60215069 255.20452765 205.76123047 256.58349609 C208.51645962 259.91877348 210.70070073 262.79543529 212 267 C205.0718682 272.89276711 198.12136817 278.75040845 191.0703125 284.49609375 C181.49293451 292.30665265 171.95247043 300.15890958 162.53613281 308.16308594 C156.53884721 313.25455119 150.43245907 318.20987245 144.328125 323.171875 C139.34402374 327.23406158 134.40061978 331.33785938 129.5 335.5 C124.73078305 339.55000511 119.92087884 343.54351856 115.0703125 347.49609375 C105.49293451 355.30665265 95.95247043 363.15890958 86.53613281 371.16308594 C80.53884721 376.25455119 74.43245907 381.20987245 68.328125 386.171875 C63.34402468 390.23406081 58.40058544 394.33781943 53.5 398.5 C46.84951621 404.14840972 40.09879436 409.66823149 33.328125 415.171875 C28.32105833 419.25277905 23.35853712 423.37871848 18.4375 427.5625 C14.42142428 430.96905126 10.39376484 434.35897565 6.3125 437.6875 C5.52488281 438.33074219 4.73726562 438.97398437 3.92578125 439.63671875 C2 441 2 441 0 441 C0 295.47 0 149.94 0 0 Z " fill="#F15922" transform="translate(38,333)"/>
<path d="M0 0 C4.35718719 1.58349083 6.8230194 4.97932567 9.6875 8.4375 C10.21641846 9.06567627 10.74533691 9.69385254 11.2902832 10.34106445 C12.86848473 12.22064787 14.43622637 14.10840403 16 16 C16.8146875 16.98484375 17.629375 17.9696875 18.46875 18.984375 C20.65551394 21.64853107 22.82998341 24.32219159 25 27 C29.79741944 32.90385131 34.63434909 38.76756336 39.5625 44.5625 C43.43112303 49.11155415 47.19777962 53.72506608 50.90625 58.40625 C53.38811041 61.48079349 55.93848513 64.49179044 58.5 67.5 C62.39075616 72.06925314 66.17928921 76.70172572 69.90625 81.40625 C72.38811041 84.48079349 74.93848513 87.49179044 77.5 90.5 C81.39075616 95.06925314 85.17928921 99.70172572 88.90625 104.40625 C91.38812153 107.48080727 93.93885411 110.49146185 96.5 113.5 C99.90983207 117.51371793 103.30149354 121.53911213 106.625 125.625 C107.57246094 126.78902344 107.57246094 126.78902344 108.5390625 127.9765625 C110 130 110 130 111 133 C22.23 133 -66.54 133 -158 133 C-150.3263861 125.3263861 -142.32358666 118.16520461 -133.8828125 111.34765625 C-130.71983953 108.77184764 -127.60682328 106.14294778 -124.5 103.5 C-120.53112504 100.1269805 -116.5398241 96.78822892 -112.5 93.5 C-106.26083244 88.41824323 -100.13108038 83.21105894 -94 78 C-86.98765442 72.0399173 -79.95039195 66.12241205 -72.8125 60.3125 C-69.1190609 57.2756723 -65.47701514 54.18039045 -61.83374023 51.08374023 C-58.44045891 48.2045468 -55.01732214 45.36795763 -51.5625 42.5625 C-47.31607618 39.10725849 -43.14703706 35.57302166 -39 32 C-33.99095973 27.68428999 -28.92420573 23.45473916 -23.7890625 19.2890625 C-20.59642512 16.66877468 -17.45458856 13.99294185 -14.3125 11.3125 C-9.66737449 7.3549843 -4.94009138 3.58398786 0 0 Z " fill="#F15922" transform="translate(281,641)"/>
</svg>
